<?xml version="1.0" encoding="utf-8"?>
<!-- Generator: Adobe Illustrator 15.1.0, SVG Export Plug-In . SVG Version: 6.00 Build 0)  -->
<!DOCTYPE svg PUBLIC "-//W3C//DTD SVG 1.1//EN" "http://www.w3.org/Graphics/SVG/1.1/DTD/svg11.dtd">
<svg version="1.1" id="Layer_1" xmlns="http://www.w3.org/2000/svg" xmlns:xlink="http://www.w3.org/1999/xlink" x="0px" y="0px"
	 width="595.28px" height="841.89px" viewBox="0 0 595.28 841.89" enable-background="new 0 0 595.28 841.89" xml:space="preserve">
<g>
	<path fill="#C6C6C6" d="M427.396,648.705c24.764,2.455,52.82-15.008,59.314-40.131c6.756-26.143-0.545-49.492-11.998-78.967
		c-14.849-38.215-4.896-74.6,15.199-99.887c7.979-10.031,39.664-35.673,49.313-42.57c25.876-18.502,67.137,14.051,22.838,46.828
		c-31.056,22.979-58.589,44.947-26.948,111.506c12.694,26.703,12.216,62.322,4.894,86.477c-6.33,20.875-32.631,41.33-53.305,50.576
		c-38.663,17.301-94.39,16.891-135.73,7.777c3.413-30.334,26.268-56.234,50.895-45.826"/>
	<path fill="#878787" d="M519.229,403.635c10.699-8.867,10.346-9.588,19.994-16.484c25.876-18.502,67.137,14.051,22.838,46.828"/>
	<path fill="#878787" d="M488.953,430.947c5.961,20.703,18.462,33.645,42.764,30.625c-5.585,8.098-5.684,8.16-9.695,21.748
		c-29.118,11.021-48.917-19.936-48.498-24.361C473.938,454.541,482.959,438.385,488.953,430.947z"/>
	<path fill="#878787" d="M542.093,386.733c1.146,21.514,7.021,30.953,31.38,33.481c-7.266,6.633-2.676,7.807-16.985,18.004
		c-30.851,4.184-42.04-30.297-39.125-33.652C520.319,401.163,533.113,391.396,542.093,386.733z"/>
	<path fill="#878787" d="M467.795,498.848c14.424,7.717,33.341,10.844,53.327-3.828c0.821,9.801,0.278,8.4,2.521,19.359
		c-15.494,27-49.279,14.422-50.734,10.232C471.238,519.793,468.939,511.801,467.795,498.848z"/>
	<path fill="#878787" d="M481.338,547.586c19.168,4.736,31.229,4.078,48.912-13.104c1.993,4.467-0.182-0.283,5.745,12.922
		c-15.151,25.518-49.673,17.148-50.814,12.867C483.592,554.316,483.247,553.51,481.338,547.586z"/>
	<g>
		<g>
			<path fill="#878787" d="M459.135,586.131c0,41.453-33.423,77.041-63.764,105.68c-35.096,33.125-86.104,53.969-142.873,53.969
				c-52.492,0-100.055-17.818-134.673-46.691c-35.186-29.35-61.051-62.641-61.051-107.703c0-27.293,8.278-63.566,26.173-83.031
				c39.355-42.789,79.504-67.939,124.792-98.789c11.513-7.841,49.054-5.25,63.669-5.25c66.157,0,102.396,53.166,140.018,89.089
				C435.354,516.25,459.135,552.607,459.135,586.131z"/>
			<radialGradient id="SVGID_1_" cx="257.8052" cy="574.8418" r="186.5913" gradientUnits="userSpaceOnUse">
				<stop  offset="0" style="stop-color:#E6E6E6"/>
				<stop  offset="1" style="stop-color:#B2B2B2"/>
			</radialGradient>
			<path fill="url(#SVGID_1_)" d="M409.604,625.08c-2.621-3.99-4.346-8.453-5.226-13.307c11.173,7.441,27.528,10.279,47.208,8.891
				c3.855-8.977,6.43-18.299,7.248-27.951c-16.131-0.621-29.913-5.68-39.875-15.637c-3.815-3.818-6.91-8.195-9.316-13.051
				c12.957,6.418,29.333,7.865,47.541,4.885c-2.413-11.109-6.923-22.219-12.728-32.77c-20.646,5.322-39.021,2.934-50.463-8.508
				c-2.58-2.584-4.703-5.518-6.382-8.754c12.19,6.322,28.634,6.313,46.467,0.785c-6.982-9.818-14.806-18.771-22.652-26.26
				c-37.622-35.924-73.86-89.09-140.018-89.09c-14.616,0-52.156-2.591-63.669,5.251c-45.288,30.849-85.437,56-124.792,98.789
				c-2.892,3.146-5.531,6.736-7.926,10.654c17.347,9.734,35.749,13.412,52.366,9.551c-3.393,2.979-7.138,5.551-11.232,7.656
				c-15.171,7.797-32.781,7.977-50.152,1.93c-3.588,9.922-6.098,20.605-7.585,31.01c15.784,3.963,30.428,4.086,42.803-0.193
				c-3,4.51-6.625,8.461-10.893,11.764c-9.262,7.164-20.714,10.637-33.553,10.787c0.015,12.084,1.901,23.318,5.317,33.863
				c14.728,1.674,27.436,0.273,37.159-4.557c-1.488,4.707-3.761,8.914-6.868,12.543c-5.272,6.16-12.569,10.211-21.458,12.297
				c10.962,19.879,27.508,37.256,46.899,53.43c34.618,28.873,82.181,46.691,134.673,46.691c56.77,0,107.777-20.844,142.873-53.969
				c15.458-14.59,31.706-30.99,43.936-49.043C425.941,640.131,415.665,634.309,409.604,625.08z"/>
			
				<radialGradient id="SVGID_2_" cx="245.4966" cy="580.2813" r="129.6902" fx="239.0063" fy="587.4807" gradientUnits="userSpaceOnUse">
				<stop  offset="0.297" style="stop-color:#FFFFFF"/>
				<stop  offset="0.5228" style="stop-color:#FBFBFB"/>
				<stop  offset="0.7533" style="stop-color:#EFEFEF"/>
				<stop  offset="0.9853" style="stop-color:#DADADA"/>
				<stop  offset="1" style="stop-color:#D9D9D9"/>
			</radialGradient>
			<path fill="url(#SVGID_2_)" d="M388.529,605.527c0,28.801-23.221,53.525-44.295,73.422
				c-24.382,23.012-59.821,37.494-99.266,37.494c-36.473,0-69.515-12.379-93.565-32.439c-24.443-20.395-42.414-43.518-42.414-74.828
				c0-18.959,5.75-44.162,18.184-57.682c27.34-29.732,55.235-47.205,86.699-68.637c8.001-5.447,34.08-3.646,44.235-3.646
				c45.965,0,71.143,36.936,97.28,61.895C372.011,556.979,388.529,582.232,388.529,605.527z"/>
		</g>
		<g>
			
				<radialGradient id="SVGID_3_" cx="248.7593" cy="314.228" r="184.0867" fx="253.2652" fy="315.3047" gradientUnits="userSpaceOnUse">
				<stop  offset="0.303" style="stop-color:#E6E6E6"/>
				<stop  offset="0.4667" style="stop-color:#DFDFDF"/>
				<stop  offset="0.7001" style="stop-color:#CCCCCC"/>
				<stop  offset="0.9333" style="stop-color:#B2B2B2"/>
			</radialGradient>
			<path fill="url(#SVGID_3_)" d="M412.561,306.31c-10.162-24.933-8.445-42.472-4.567-69.559
				c4.36-30.456-4.078-81.404-4.078-112.487c-19.757,16.105-65.636,77.904-81.602,72.627c-13.444-4.442-22.921-14.08-37.646-17.315
				c-11.463-2.517-23.774-4.293-35.908-4.213c-12.136-0.081-24.445,1.696-35.909,4.213c-14.724,3.235-24.203,12.874-37.647,17.315
				c-15.966,5.276-61.843-56.522-81.601-72.627c0,31.083-8.439,82.032-4.078,112.487c3.876,27.087,5.595,44.626-4.567,69.559
				C29.35,442.77,152.898,457.701,181.275,481.414c3.453,2.885,12.374,9.547,12.982,9.953c13.76,9.215,33.797,13.4,54.502,12.762
				c20.705,0.639,40.739-3.547,54.501-12.762c0.608-0.406,9.528-7.068,12.982-9.953C344.619,457.701,468.168,442.77,412.561,306.31z
				"/>
			<g>
				<g>
					<path fill="#878787" d="M277.503,237.167c14.68-2.754,30.003,8.664,37.111,26.42c-6.233-19.277-21.813-31.937-36.796-28.951
						c-9.83,1.958-17.171,10.211-20.484,21.332C260.995,246.097,268.129,238.924,277.503,237.167z"/>
					<path fill="#878787" d="M219.663,237.369c8.832,1.762,15.727,8.416,19.67,17.669c-3.555-10.145-10.609-17.567-19.865-19.41
						c-13.801-2.75-28.107,7.773-35.15,24.514C192.044,244.327,206.09,234.666,219.663,237.369z"/>
				</g>
				<g>
					
						<ellipse transform="matrix(-0.9797 0.2006 -0.2006 -0.9797 635.4606 564.6226)" fill="#B2B2B2" cx="289.118" cy="314.513" rx="36.598" ry="51.433"/>
					
						<ellipse transform="matrix(-0.9797 0.2006 -0.2006 -0.9797 636.1047 570.9772)" fill="#FFFFFF" cx="289.118" cy="317.723" rx="36.598" ry="51.433"/>
					
						<ellipse transform="matrix(0.9327 -0.3607 0.3607 0.9327 -88.436 124.1052)" opacity="0.53" fill="#6CA1B6" cx="288.303" cy="299.003" rx="19.252" ry="27.687"/>
					<ellipse fill="#575756" cx="283.174" cy="298" rx="11.386" ry="12.039"/>
					
						<ellipse transform="matrix(0.9797 0.2006 -0.2006 0.9797 67.3422 -35.418)" fill="#B2B2B2" cx="208.4" cy="314.513" rx="36.598" ry="51.433"/>
					
						<ellipse transform="matrix(0.9797 0.2006 -0.2006 0.9797 67.9863 -35.3528)" fill="#FFFFFF" cx="208.4" cy="317.723" rx="36.598" ry="51.433"/>
					
						<ellipse transform="matrix(-0.9327 -0.3607 0.3607 -0.9327 302.8067 654.5158)" opacity="0.53" fill="#6CA1B6" cx="212.475" cy="299.003" rx="19.251" ry="27.688"/>
					<ellipse fill="#575756" cx="217.453" cy="298" rx="11.386" ry="12.039"/>
				</g>
			</g>
			<path fill="#F6F6F6" d="M321.863,363.25c-18.621-12.791-64.009-23.559-76.144-23.487c-0.286-0.002-0.592,0.104-0.907,0.263
				c-0.322-0.158-0.633-0.264-0.918-0.262c-12.135-0.072-50.005,10.695-68.624,23.486c-116.085,79.75-21.6,94.427,6.775,115.265
				c3.144,2.307,10.155,8.563,11.854,9.941c-0.028,0.16-0.041,0.27-0.028,0.277c12.969,7.631,31.511,13.336,50.935,13.494
				c1.25,0.018,2.504,0.006,3.761-0.025c1.255,0.031,2.509,0.043,3.76,0.025c19.423-0.158,37.965-5.863,50.934-13.494
				c0.014-0.008-0.005-0.113-0.038-0.266c1.68-1.365,8.715-7.641,11.863-9.953C343.462,457.678,437.948,443,321.863,363.25z"/>
			<g>
				<linearGradient id="SVGID_4_" gradientUnits="userSpaceOnUse" x1="93.5552" y1="202.7461" x2="150.021" y2="202.7461">
					<stop  offset="0" style="stop-color:#EDEDED"/>
					<stop  offset="1" style="stop-color:#878787;stop-opacity:0.2"/>
				</linearGradient>
				<path fill="url(#SVGID_4_)" d="M96.095,129.659c4.473,7.156,10.915,13.414,14.47,20.23c4.767,9.153,9.082,18.147,14.036,27.071
					c4.631,8.333,9.322,15.417,12.948,24.126c3.311,7.951,6.421,12.165,9.736,19.968c2.115,4.976,4.4,12.431,1,17.538
					c-4.715,7.076-18.077,16.969-24.397,22.581c-5.587,4.964-10.22,10.703-16.41,14.574c-3.542,2.214-12.683-38.48-13.074-47.782
					c-0.459-10.8-1.86-3.334,0.411-57.299c0.295-7.006,2.825-31.628,3.059-32.871"/>
				<linearGradient id="SVGID_5_" gradientUnits="userSpaceOnUse" x1="92.3345" y1="201.8623" x2="148.1172" y2="201.8623">
					<stop  offset="0.0061" style="stop-color:#F9CBCC"/>
					<stop  offset="1" style="stop-color:#C1828B"/>
				</linearGradient>
				<path fill="url(#SVGID_5_)" d="M96.095,129.659c4.419,7.001,9.532,14.46,13.043,21.132c4.71,8.959,8.971,17.763,13.866,26.498
					c4.574,8.157,9.212,15.092,12.79,23.615c3.275,7.781,6.347,11.906,9.622,19.544c2.087,4.869,4.347,12.167,0.985,17.166
					c-4.655,6.925-17.857,16.611-24.101,22.102c-5.521,4.858-10.098,10.478-16.21,14.265c-3.498,2.167-12.53-37.666-12.92-46.77
					c-0.45-10.569-1.833-3.261,0.409-56.084c0.293-6.857,2.789-30.957,3.023-32.172"/>
			</g>
			<g>
				
					<linearGradient id="SVGID_6_" gradientUnits="userSpaceOnUse" x1="-2483.9287" y1="202.7461" x2="-2427.4629" y2="202.7461" gradientTransform="matrix(-1 0 0 1 -2079.5107 0)">
					<stop  offset="0" style="stop-color:#EDEDED"/>
					<stop  offset="1" style="stop-color:#878787;stop-opacity:0.2"/>
				</linearGradient>
				<path fill="url(#SVGID_6_)" d="M401.877,129.659c-4.473,7.156-10.916,13.414-14.469,20.23
					c-4.769,9.153-9.082,18.147-14.036,27.071c-4.63,8.333-9.321,15.417-12.946,24.126c-3.313,7.951-6.423,12.165-9.738,19.968
					c-2.114,4.976-4.399,12.431-1,17.538c4.713,7.076,18.077,16.969,24.395,22.581c5.59,4.964,10.223,10.703,16.412,14.574
					c3.54,2.214,12.683-38.48,13.075-47.782c0.458-10.8,1.859-3.334-0.411-57.299c-0.296-7.006-2.826-31.628-3.059-32.871"/>
				
					<linearGradient id="SVGID_7_" gradientUnits="userSpaceOnUse" x1="-2485.1494" y1="201.8623" x2="-2429.3662" y2="201.8623" gradientTransform="matrix(-1 0 0 1 -2079.5107 0)">
					<stop  offset="0" style="stop-color:#FBDEE4"/>
					<stop  offset="1" style="stop-color:#C1828B"/>
				</linearGradient>
				<path fill="url(#SVGID_7_)" d="M401.877,129.659c-4.419,7.001-9.532,14.46-13.042,21.132
					c-4.71,8.959-8.971,17.763-13.866,26.498c-4.575,8.157-9.211,15.092-12.791,23.615c-3.273,7.781-6.346,11.906-9.62,19.544
					c-2.09,4.869-4.347,12.167-0.986,17.166c4.654,6.925,17.857,16.611,24.102,22.102c5.519,4.858,10.096,10.478,16.21,14.265
					c3.497,2.167,12.529-37.666,12.919-46.77c0.451-10.569,1.835-3.261-0.407-56.084c-0.295-6.857-2.79-30.957-3.024-32.172"/>
			</g>
			<g>
				<path fill="#C1828B" d="M228.219,373.122c5.649-1.117,49.136-9.824,41.855,9.487c-3.264,8.657-11.195,34.264-24.25,28.552
					C232.773,405.452,222.568,374.243,228.219,373.122z"/>
				<g>
					<path fill="#878787" d="M193.914,397.005c0,1.354-1.099,2.448-2.448,2.448c-1.354,0-2.45-1.095-2.45-2.448
						c0-1.353,1.095-2.448,2.45-2.448C192.815,394.557,193.914,395.653,193.914,397.005z"/>
					<path fill="#878787" d="M201.254,418.918c0,1.352-1.097,2.445-2.446,2.445c-1.354,0-2.449-1.094-2.449-2.445
						c0-1.354,1.095-2.449,2.449-2.449C200.158,416.469,201.254,417.565,201.254,418.918z"/>
					<circle fill="#878787" cx="177.324" cy="408.372" r="2.448"/>
				</g>
				<g>
					<path fill="#878787" d="M311.954,403.561c-0.891,1.018-2.436,1.121-3.454,0.23c-1.016-0.889-1.12-2.436-0.23-3.451
						c0.889-1.021,2.435-1.123,3.451-0.231C312.741,400.997,312.844,402.543,311.954,403.561z"/>
					<path fill="#878787" d="M303.06,424.891c-0.89,1.018-2.437,1.117-3.451,0.23c-1.019-0.889-1.125-2.436-0.232-3.455
						c0.89-1.017,2.435-1.119,3.452-0.232C303.846,422.324,303.951,423.871,303.06,424.891z"/>
					<path fill="#878787" d="M293.826,402.813c-0.886,1.018-2.435,1.12-3.453,0.231c-1.018-0.89-1.123-2.438-0.231-3.454
						c0.89-1.018,2.436-1.121,3.455-0.229C294.611,400.25,294.716,401.795,293.826,402.813z"/>
				</g>
				<g>
					<g>
						<g>
							<path fill="#9D9D9C" d="M246.895,426.213c1.773,12.188,7.986,25.227,17.797,32.846c26.683,20.719,63.472-8.475,83.124-25.537
								c1.791-1.555-0.817-4.141-2.596-2.596c-18.357,15.939-54.463,45.186-79.31,24.428c-8.595-7.182-13.879-19.143-15.476-30.115
								C250.095,422.902,246.558,423.898,246.895,426.213L246.895,426.213z"/>
						</g>
					</g>
					<g>
						<g>
							<path fill="#9D9D9C" d="M246.895,425.355c-1.588,10.916-6.778,22.336-15.033,29.73
								c-24.368,21.836-61.652-8.324-79.754-24.043c-1.778-1.545-4.386,1.041-2.596,2.596
								c19.675,17.084,55.917,45.885,82.754,25.824c10.057-7.518,16.38-20.842,18.169-33.131
								C250.771,424.018,247.234,423.02,246.895,425.355L246.895,425.355z"/>
						</g>
					</g>
					<g>
						<g>
							<path fill="#9D9D9C" d="M160.002,424.609c-8.714,3.053-17.12,10.635-15.048,20.787c0.473,2.318,4.012,1.334,3.54-0.977
								c-1.576-7.723,5.654-13.879,12.483-16.27C163.197,427.373,162.243,423.826,160.002,424.609L160.002,424.609z"/>
						</g>
					</g>
					<g>
						<g>
							<path fill="#9D9D9C" d="M336.535,428.15c6.83,2.391,14.064,8.545,12.487,16.27c-0.473,2.311,3.066,3.295,3.539,0.977
								c2.073-10.154-6.336-17.736-15.05-20.787C335.271,423.826,334.316,427.373,336.535,428.15L336.535,428.15z"/>
						</g>
					</g>
				</g>
			</g>
		</g>
	</g>
</g>
</svg>
